<?xml version="1.0" standalone="no"?>
<!DOCTYPE svg PUBLIC "-//W3C//DTD SVG 1.1//EN" "http://www.w3.org/Graphics/SVG/1.1/DTD/svg11.dtd" >
<svg xmlns="http://www.w3.org/2000/svg" xmlns:xlink="http://www.w3.org/1999/xlink" version="1.1">
<metadata></metadata>
<defs>
<font id="verlagbook" horiz-adv-x="901" >
<font-face units-per-em="2048" ascent="1638" descent="-410" />
<missing-glyph horiz-adv-x="460" />
<glyph horiz-adv-x="0" />
<glyph unicode="&#xd;" horiz-adv-x="681" />
<glyph unicode=" "  horiz-adv-x="460" />
<glyph unicode="&#x09;" horiz-adv-x="460" />
<glyph unicode="&#xa0;" horiz-adv-x="460" />
<glyph unicode="!" horiz-adv-x="450" d="M121 90q0 43 30.5 74t73.5 31q45 0 76 -31t31 -74q0 -45 -31 -75.5t-76 -30.5q-43 0 -73.5 30.5t-30.5 75.5zM135 1501h180l-28 -1128h-123z" />
<glyph unicode="&#x22;" horiz-adv-x="823" d="M90 1018l193 401l157 -98l-260 -363zM408 993l192 406l162 -101l-264 -364z" />
<glyph unicode="#" horiz-adv-x="1208" d="M51 307l29 129h217l68 307h-218l29 131h217l70 306h145l-67 -306h254l69 306h144l-68 -306h217l-29 -131h-217l-69 -307h219l-29 -129h-219l-68 -307h-143l68 307h-256l-68 -307h-145l67 307h-217zM442 436h256l68 307h-254z" />
<glyph unicode="$" horiz-adv-x="899" d="M68 102l82 131q109 -84 217 -108l32 424q-139 63 -206.5 134t-67.5 185q0 127 90 221.5t234 108.5l12 135l123 -10l-11 -129q119 -14 222 -84l-74 -129q-74 55 -158 72l-31 -396q145 -68 212 -139.5t67 -189.5q0 -141 -96.5 -238.5t-235.5 -109.5l-10 -134l-123 11l8 127 q-145 18 -286 118zM281 879q0 -90 131 -164l26 340q-157 -29 -157 -176zM489 121q76 14 120 64t44 130q0 111 -133 183z" />
<glyph unicode="%" horiz-adv-x="1363" d="M102 899q0 129 68 215t184 86q119 0 184.5 -86t65.5 -215t-67.5 -215t-186.5 -86q-117 0 -182.5 86t-65.5 215zM145 37l981 1182l93 -76l-981 -1182zM227 899q0 -80 33 -132t92.5 -52t92 52t32.5 132t-32.5 132t-92 52t-92.5 -52t-33 -132zM762 281q0 129 66.5 215 t185.5 86q117 0 182.5 -86t65.5 -215t-68 -215t-184 -86q-119 0 -183.5 86t-64.5 215zM887 280.5q0 -79.5 32.5 -132t92 -52.5t92.5 52.5t33 132t-33 132t-92.5 52.5t-92 -52.5t-32.5 -132z" />
<glyph unicode="&#x26;" horiz-adv-x="1245" d="M102 311q0 207 275 336q-80 131 -80 236q0 131 96 224t213 93q133 0 210 -81t77 -181q0 -229 -293 -350q98 -121 252 -256q80 84 199 246l110 -82q-119 -154 -209 -252l201 -168l-94 -109l-211 172q-184 -160 -375 -159q-162 0 -266.5 87t-104.5 244zM260 309 q0 -88 61.5 -141t159.5 -53q128 -1 267 114q-193 176 -297 312q-86 -33 -138.5 -94.5t-52.5 -137.5zM449 891q0 -84 75 -201q228 97 228 232q0 61 -42 106t-104 45q-63 0 -110 -53t-47 -129z" />
<glyph unicode="'" horiz-adv-x="501" d="M90 1018l193 401l157 -98l-260 -363z" />
<glyph unicode="(" horiz-adv-x="704" d="M102 528q0 301 142.5 569.5t406.5 430.5l68 -119q-227 -139 -348 -375.5t-121 -505t121 -504t348 -374.5l-68 -119q-264 160 -406.5 429t-142.5 568z" />
<glyph unicode=")" horiz-adv-x="704" d="M-14 -350q227 139 348 374.5t121 504t-121 505t-348 375.5l67 119q264 -162 406.5 -430.5t142.5 -569.5q0 -299 -142.5 -568t-406.5 -429z" />
<glyph unicode="*" horiz-adv-x="778" d="M82 1237l39 117l217 -80l-12 225h127l-13 -225l217 80l39 -117l-223 -61l145 -177l-102 -71l-127 188l-127 -188l-100 71l143 177z" />
<glyph unicode="+" horiz-adv-x="942" d="M123 520v139h274v289h148v-289h274v-139h-274v-289h-148v289h-274z" />
<glyph unicode="," horiz-adv-x="450" d="M100 -213q98 86 131 203q-49 2 -77.5 31.5t-28.5 72.5q0 41 29.5 71t70.5 30q51 0 81 -36t30 -89q0 -78 -55.5 -166t-157.5 -150z" />
<glyph unicode="-" horiz-adv-x="694" d="M102 426v139h490v-139h-490z" />
<glyph unicode="." horiz-adv-x="450" d="M121 90q0 43 30.5 74t73.5 31q45 0 76 -31t31 -74q0 -45 -31 -75.5t-76 -30.5q-43 0 -73.5 30.5t-30.5 75.5z" />
<glyph unicode="/" horiz-adv-x="690" d="M57 -442l490 1943h143l-487 -1943h-146z" />
<glyph unicode="0" horiz-adv-x="1087" d="M90 590q0 260 123 435t338 175q213 0 331.5 -174t118.5 -436q0 -260 -121.5 -435t-336.5 -175q-213 0 -333 175t-120 435zM258 590q0 -203 75 -337t214 -134q137 0 212 134t75 337q0 205 -74 338t-213 133t-214 -133t-75 -338z" />
<glyph unicode="1" horiz-adv-x="698" d="M68 1059l391 147h26v-1206h-161v993l-207 -75z" />
<glyph unicode="2" horiz-adv-x="892" d="M35 23q291 311 414 473q82 104 120.5 181t38.5 165q0 96 -59.5 152.5t-163.5 56.5q-139 0 -254 -78l-49 131q145 96 301 96q180 0 286.5 -95t106.5 -245q0 -178 -182 -416q-119 -152 -256 -299h453v-145h-746z" />
<glyph unicode="3" horiz-adv-x="864" d="M66 35l45 135q141 -47 254 -47q121 0 185 57.5t64 157.5q0 102 -78.5 157.5t-232.5 55.5q-68 0 -127 -8l-12 18l368 471h-462v148h725l10 -23l-377 -481q168 -23 256 -113t88 -231q0 -152 -108.5 -252t-290.5 -100q-141 0 -307 55z" />
<glyph unicode="4" horiz-adv-x="989" d="M45 354v41l662 807h41v-702h196v-146h-196v-358h-154v358h-549zM303 500h291v354z" />
<glyph unicode="5" horiz-adv-x="935" d="M115 35l43 137q133 -51 258 -51t190.5 67.5t65.5 173.5q0 96 -71 156t-202 60q-121 0 -217 -25l-18 22v605h610v-148h-459v-311q49 4 91 4q207 0 315 -100.5t108 -262.5q0 -164 -108.5 -273t-290.5 -109q-156 0 -315 55z" />
<glyph unicode="6" horiz-adv-x="987" d="M90 401q0 492 647 836l70 -123q-389 -215 -500 -448q90 92 234 92q150 0 249 -106.5t99 -258.5q0 -164 -108.5 -288.5t-288.5 -124.5q-178 0 -290 117.5t-112 303.5zM250 373q0 -106 70.5 -181t171.5 -75q106 0 172.5 75t66.5 179q0 115 -62.5 187.5t-168.5 72.5 q-119 0 -184.5 -71t-65.5 -187z" />
<glyph unicode="7" horiz-adv-x="868" d="M63 1032v148h760l-520 -1180h-160l465 1032h-545z" />
<glyph unicode="8" horiz-adv-x="985" d="M123 319q0 94 50 169t136 118q-162 88 -162 262q0 141 96.5 236.5t248 95.5t248 -95t96.5 -237q0 -172 -160 -262q86 -43 136 -118t50 -169q0 -141 -103.5 -240t-267 -99t-266 99t-102.5 240zM283 323.5q0 -90.5 58 -150.5t151 -60q94 0 152 60t58 150.5t-58 151 t-152 60.5q-92 0 -150.5 -60.5t-58.5 -151zM299 868q0 -82 54.5 -140t138.5 -58q86 0 139 58t53 140q0 84 -53 141.5t-139 57.5q-84 0 -138.5 -57.5t-54.5 -141.5z" />
<glyph unicode="9" horiz-adv-x="966" d="M100 797q0 166 111 284.5t285 118.5q182 0 287.5 -118t105.5 -300q0 -229 -155.5 -444t-493.5 -393l-68 121q371 205 492 440q-76 -70 -201 -70q-152 0 -257.5 104.5t-105.5 256.5zM258 821q0 -115 60.5 -184.5t166.5 -69.5q119 0 178.5 68.5t59.5 185.5q0 106 -64.5 175 t-164.5 69q-106 0 -171 -70.5t-65 -173.5z" />
<glyph unicode=":" horiz-adv-x="450" d="M119 651q0 43 30.5 74t75.5 31q43 0 74 -31t31 -74q0 -45 -31 -75.5t-74 -30.5q-45 0 -75.5 30.5t-30.5 75.5zM121 90q0 43 30.5 74t73.5 31q45 0 76 -31t31 -74q0 -45 -31 -75.5t-76 -30.5q-43 0 -73.5 30.5t-30.5 75.5z" />
<glyph unicode=";" horiz-adv-x="450" d="M100 -213q98 86 131 203q-49 2 -77.5 31.5t-28.5 72.5q0 41 29.5 71t70.5 30q51 0 81 -36t30 -89q0 -78 -55.5 -166t-157.5 -150zM119 651q0 43 30.5 74t75.5 31q43 0 74 -31t31 -74q0 -45 -31 -75.5t-74 -30.5q-45 0 -75.5 30.5t-30.5 75.5z" />
<glyph unicode="&#x3c;" horiz-adv-x="806" d="M78 590l563 500l96 -107l-446 -397l446 -396l-96 -98z" />
<glyph unicode="=" horiz-adv-x="845" d="M123 373v139h600v-139h-600zM123 668v139h600v-139h-600z" />
<glyph unicode="&#x3e;" horiz-adv-x="806" d="M70 199l446 397l-446 395l96 99l563 -498l-563 -500z" />
<glyph unicode="?" horiz-adv-x="786" d="M45 1460q160 55 297 56q190 0 293.5 -95t103.5 -245q0 -84 -38.5 -155t-93 -121t-110 -98t-94 -106.5t-38.5 -122.5v-157h-150v200q0 70 37 132.5t90 109.5t105.5 93t89 101.5t36.5 114.5q0 193 -245 193q-115 0 -238 -47zM182 90q0 43 31 74t74 31q45 0 75.5 -31 t30.5 -74q0 -45 -30.5 -75.5t-75.5 -30.5q-43 0 -74 30.5t-31 75.5z" />
<glyph unicode="@" horiz-adv-x="1400" d="M102 586q0 254 175.5 432t422.5 178q145 0 263 -50t189 -131t108.5 -177.5t37.5 -196.5q0 -207 -137 -305q-61 -45 -139 -45q-121 0 -170 100q-88 -94 -201 -94q-82 0 -136 47t-54 127q0 72 53 117t139 45q82 0 150 -31v23q0 121 -131 120q-59 0 -135 -22l-17 102 q86 29 172 29q244 0 244 -236v-131q0 -49 26.5 -72.5t65.5 -23.5q41 0 72 21q80 59 80 217q0 80 -27 156.5t-81 146t-150.5 111.5t-221.5 42q-197 0 -335 -146t-138 -353q0 -215 143.5 -357.5t395.5 -142.5q102 0 244 47l28 -108q-168 -49 -280 -50q-297 0 -476.5 175.5 t-179.5 435.5zM588 473q0 -82 102 -82q68 0 113 55v68q-55 35 -119 35q-43 0 -69.5 -19.5t-26.5 -56.5z" />
<glyph unicode="A" horiz-adv-x="1394" d="M10 0l674 1528h27l673 -1528h-176l-178 416h-672l-178 -416h-170zM418 553h553l-277 645z" />
<glyph unicode="B" horiz-adv-x="1140" d="M164 12v1475q183 24 336 24h12q252 0 387 -112.5t135 -272.5q0 -127 -59.5 -214t-204.5 -136q303 -77 303 -368q0 -170 -147.5 -295t-399.5 -125q-141 0 -362 24zM328 145q86 -16 221 -16q168 0 260 82t92 213q0 115 -104.5 198t-288.5 83q-127 0 -180 -7v-553zM328 838 q55 -6 176 -7q184 0 272 78t88 195q0 125 -85 196.5t-253 71.5q-113 0 -198 -16v-518z" />
<glyph unicode="C" horiz-adv-x="1462" d="M113 750q0 332 228 554t568 222q264 0 496 -144l-68 -139q-223 129 -442 129q-279 0 -441.5 -175t-162.5 -447q0 -270 169 -445.5t449 -175.5q221 0 443 129l53 -139q-231 -143 -496 -144q-348 0 -572 218.5t-224 556.5z" />
<glyph unicode="D" horiz-adv-x="1525" d="M164 12v1475q189 24 376 24h15q205 0 371 -62.5t270 -167.5t160.5 -237.5t56.5 -279.5q0 -154 -54 -292t-155.5 -246.5t-265.5 -173t-369 -64.5q-172 0 -405 24zM328 145q84 -16 262 -16q317 0 481 176t164 459q0 270 -174 439t-492 169q-156 0 -241 -16v-1211z" />
<glyph unicode="E" horiz-adv-x="1175" d="M164 0v1501h878v-147h-714v-518h643v-148h-643v-541h714v-147h-878z" />
<glyph unicode="F" horiz-adv-x="1101" d="M164 0v1501h878v-147h-714v-547h643v-148h-643v-659h-164z" />
<glyph unicode="G" horiz-adv-x="1587" d="M113 750q0 170 67.5 318.5t179 246.5t252 154.5t285.5 56.5q174 0 302 -45t259 -138l-86 -129q-223 164 -473 164q-279 0 -443.5 -184t-164.5 -444q0 -266 182 -447.5t445 -181.5q213 0 382 102v367h-397v153h561v-591q-238 -176 -549 -177q-324 0 -563 217.5t-239 557.5 z" />
<glyph unicode="H" horiz-adv-x="1458" d="M164 0v1501h164v-665h802v665h164v-1501h-164v688h-802v-688h-164z" />
<glyph unicode="I" horiz-adv-x="512" d="M174 0v1501h164v-1501h-164z" />
<glyph unicode="J" horiz-adv-x="929" d="M29 82l84 125q111 -82 241 -82q133 0 195.5 79t62.5 245v1052h164v-1055q0 -211 -110.5 -341t-313.5 -130q-190 0 -323 107z" />
<glyph unicode="K" horiz-adv-x="1226" d="M164 0v1501h164v-698l653 698h207l-696 -729l729 -772h-215l-678 737v-737h-164z" />
<glyph unicode="L" horiz-adv-x="1079" d="M164 0v1501h164v-1354h714v-147h-878z" />
<glyph unicode="M" horiz-adv-x="1751" d="M143 0l58 1526l30 4l652 -1131l635 1131l32 -4l58 -1526h-166l-23 1061l-532 -907h-23l-536 909l-19 -1063h-166z" />
<glyph unicode="N" horiz-adv-x="1486" d="M164 0v1522l33 8l962 -1149v1120h164v-1524l-20 -6l-975 1168v-1139h-164z" />
<glyph unicode="O" horiz-adv-x="1722" d="M113 750q0 332 223 554t532.5 222t525.5 -221t216 -555q0 -332 -223.5 -553.5t-532.5 -221.5t-525 220.5t-216 554.5zM291 749.5q0 -268.5 161.5 -448.5t409.5 -180t409 180t161 448.5t-161 448.5t-409 180t-409.5 -180t-161.5 -448.5z" />
<glyph unicode="P" horiz-adv-x="1128" d="M164 0v1487q183 24 332 24h12q276 0 426.5 -136t150.5 -341q0 -229 -157.5 -370.5t-429.5 -141.5q-68 0 -170 8v-530h-164zM328 678q102 -12 180 -12q201 0 301 100t100 256q0 141 -100 241.5t-277 100.5q-133 0 -204 -16v-670z" />
<glyph unicode="Q" horiz-adv-x="1722" d="M113 750q0 332 222 554t531.5 222t525.5 -221.5t216 -554.5q0 -291 -178 -506l194 -174l-104 -121l-207 184q-203 -158 -461 -158q-309 0 -524 220.5t-215 554.5zM291 749.5q0 -268.5 160.5 -448.5t408.5 -180q190 0 338 115l-68 63q-70 61 -139 123l-67 61l104 119 q281 -250 281 -252q121 175 121 400q0 268 -161 448t-409 180t-408.5 -180t-160.5 -448.5z" />
<glyph unicode="R" horiz-adv-x="1216" d="M166 0v1487q183 24 334 24h12q281 0 429.5 -123.5t148.5 -326.5q0 -158 -85 -270.5t-243 -163.5l436 -627h-199l-399 592q-66 -4 -100 -4q-72 0 -170 4v-592h-164zM330 737q82 -10 182 -10q203 0 302 86t99 238q0 137 -99 225t-277 88q-135 0 -207 -16v-611z" />
<glyph unicode="S" horiz-adv-x="1028" d="M51 115l80 143q186 -133 363 -133q137 0 209.5 75.5t72.5 186.5q0 102 -59.5 171t-237.5 147q-195 86 -275.5 180t-80.5 231q0 168 129 289t330 121q186 0 333 -103l-73 -139q-127 92 -271 92q-135 0 -209.5 -71.5t-74.5 -180.5q0 -80 60.5 -145.5t195.5 -126.5 q233 -104 317 -199t84 -247q0 -182 -132 -306.5t-327 -124.5q-221 0 -434 140z" />
<glyph unicode="T" horiz-adv-x="1267" d="M51 1354v147h1166v-147h-500v-1354h-164v1354h-502z" />
<glyph unicode="U" horiz-adv-x="1421" d="M145 539v962h164v-950q0 -217 106.5 -322.5t293.5 -105.5q184 0 293.5 106.5t109.5 321.5v950h164v-962q0 -258 -156.5 -411t-410.5 -153q-260 0 -412 147.5t-152 416.5z" />
<glyph unicode="V" horiz-adv-x="1382" d="M10 1501h185l501 -1188l498 1188h178l-667 -1528h-27z" />
<glyph unicode="W" horiz-adv-x="1875" d="M20 1501h166l297 -1106l445 1118h20l447 -1112l295 1100h165l-413 -1526l-33 -4l-475 1188l-467 -1188l-33 4z" />
<glyph unicode="X" horiz-adv-x="1368" d="M41 0l553 748l-553 753h197l448 -633l451 633h190l-553 -747l553 -754h-197l-448 633l-451 -633h-190z" />
<glyph unicode="Y" horiz-adv-x="1300" d="M41 1501h184l430 -696l424 696h181l-529 -835v-666h-164v668z" />
<glyph unicode="Z" horiz-adv-x="1269" d="M76 23l850 1331h-797v147h1045l10 -24l-850 -1330h840v-147h-1088z" />
<glyph unicode="[" horiz-adv-x="608" d="M164 -442v1943h395v-131h-248v-1683h248v-129h-395z" />
<glyph unicode="\" horiz-adv-x="690" d="M0 1501h143l490 -1943h-146z" />
<glyph unicode="]" horiz-adv-x="608" d="M49 -313h248v1683h-248v131h395v-1943h-395v129z" />
<glyph unicode="^" d="M158 993l272 328h59l267 -328h-168l-137 174l-136 -174h-157z" />
<glyph unicode="_" horiz-adv-x="1064" d="M0 0v139h1065v-139h-1065z" />
<glyph unicode="`" d="M256 1153l86 160l358 -256l-53 -86z" />
<glyph unicode="a" horiz-adv-x="892" d="M68 260q0 117 88 192.5t221 75.5q123 0 260 -57v51q0 111 -54.5 162t-170.5 51q-121 0 -226 -43l-26 139q147 45 272 46q184 0 273.5 -89.5t89.5 -275.5v-512h-150v90q-111 -106 -266 -106q-133 0 -222 74.5t-89 201.5zM221 260q0 -72 52.5 -109.5t146.5 -37.5 q125 0 217 106v117q-127 70 -234 70q-84 0 -133 -37t-49 -109z" />
<glyph unicode="b" horiz-adv-x="1044" d="M115 0v1501h161v-719q113 94 281 95q174 0 290 -124t116 -317q0 -186 -126 -319t-298 -133q-166 0 -271 100v-84h-153zM276 231q93 -112 230 -112h2q129 0 212 89t83 226q0 131 -76 219t-201 88q-152 0 -250 -102v-408z" />
<glyph unicode="c" horiz-adv-x="876" d="M82 426q0 188 132 319.5t333 131.5q154 0 293 -89l-66 -122q-119 71 -239 71h-3q-129 0 -211.5 -84t-82.5 -227q0 -135 91 -219t214 -84q121 0 241 72l56 -123q-139 -88 -293 -88q-203 0 -334 127t-131 315z" />
<glyph unicode="d" horiz-adv-x="1044" d="M82 422q0 188 126 321.5t298 133.5q156 0 262 -86v710h162v-1501h-154v88q-100 -104 -274 -104q-186 0 -303 121.5t-117 316.5zM242 426q0 -133 77.5 -220t208.5 -87h3q142 0 237 112v394q-93 116 -247 116h-3q-121 0 -198.5 -88t-77.5 -227z" />
<glyph unicode="e" horiz-adv-x="944" d="M82 426q0 186 112.5 318.5t305.5 132.5q178 0 277.5 -116t99.5 -298q0 -51 -7 -82h-630q33 -258 321 -258q96 0 238 47l28 -137q-168 -49 -280 -49q-223 0 -344 123.5t-121 318.5zM246 504h481q-8 106 -68.5 171.5t-169.5 65.5q-102 0 -165.5 -62t-77.5 -175z" />
<glyph unicode="f" horiz-adv-x="604" d="M53 721v20l133 133v228q0 414 338 414q72 -1 133 -19l-26 -139q-41 10 -80 10q-113 0 -159 -54t-46 -190v-264h254v-139h-254v-721h-160v721h-133z" />
<glyph unicode="g" horiz-adv-x="1044" d="M82 422q0 188 126 321.5t298 133.5q170 0 270 -97v80h154v-940q0 -193 -96.5 -286t-268.5 -93q-129 0 -289 47l23 148q133 -45 242 -45q119 0 173 52t54 163v168q-106 -90 -266 -90q-186 0 -303 121.5t-117 316.5zM242 422q0 -133 78.5 -220t218 -87t229.5 106v404 q-41 49 -106.5 82.5t-137.5 33.5q-127 0 -204.5 -90t-77.5 -229z" />
<glyph unicode="h" horiz-adv-x="993" d="M115 0v1501h161v-770q141 145 310 146q145 0 223 -80t78 -213v-584h-162v541q0 200 -178 200h-2q-68 0 -142.5 -41t-126.5 -98v-602h-161z" />
<glyph unicode="i" horiz-adv-x="411" d="M104 1157q0 43 30 74t73 31t72.5 -31t29.5 -74q0 -41 -29.5 -71.5t-72.5 -30.5t-73 30.5t-30 71.5zM125 0v860h162v-860h-162z" />
<glyph unicode="j" horiz-adv-x="411" d="M-92 -442l18 135q39 -6 72 -6q68 0 99.5 26.5t31.5 85.5v1061h162v-1048q0 -270 -242 -271q-59 0 -141 17zM109 1157q0 43 29.5 74t72.5 31t72.5 -31t29.5 -74q0 -41 -29.5 -71.5t-72.5 -30.5t-72.5 30.5t-29.5 71.5z" />
<glyph unicode="k" horiz-adv-x="864" d="M115 0v1501h161v-1020l365 379h201l-416 -401l436 -459h-200l-386 424v-424h-161z" />
<glyph unicode="l" horiz-adv-x="407" d="M123 0v1501h162v-1501h-162z" />
<glyph unicode="m" horiz-adv-x="1536" d="M115 0v860h153v-131q156 147 318 148q170 0 233 -160q134 155 339 155h3q133 0 201 -76.5t68 -215.5v-580h-162v551q0 186 -156 186q-127 0 -258 -137v-600h-162v541q0 104 -35.5 152t-126.5 48q-135 0 -254 -145v-596h-161z" />
<glyph unicode="n" horiz-adv-x="980" d="M115 0v860h153v-131q147 147 318 148q143 0 215.5 -79t72.5 -214v-584h-161v541q0 102 -41 151t-133 49q-135 0 -263 -139v-602h-161z" />
<glyph unicode="o" horiz-adv-x="1034" d="M82 430q0 188 122 317.5t314.5 129.5t313 -129.5t120.5 -317.5t-120.5 -317t-313 -129t-314.5 129t-122 317zM242 430q0 -141 75.5 -228t200.5 -87q123 0 199 87t76 228t-76 228t-199 87q-125 0 -200.5 -87t-75.5 -228z" />
<glyph unicode="p" horiz-adv-x="1044" d="M115 -442v1302h153v-86q117 102 289 102l1 1q171 0 288 -124t117 -317q0 -190 -123 -321t-314 -131q-135 0 -250 63v-489h-161zM274 215q86 -98 248 -98q123 0 202 89t79 228q0 131 -76 219t-201 88q-150 0 -252 -102v-424z" />
<glyph unicode="q" horiz-adv-x="1044" d="M82 422q0 193 130 324t304 131q154 0 260 -93v76h154v-1302h-162v510q-104 -84 -256 -84q-188 0 -309 119.5t-121 318.5zM242 426q0 -139 78.5 -223t226.5 -84h2q136 0 219 108v398q-41 49 -106.5 82.5t-137.5 33.5q-123 0 -202.5 -89t-79.5 -226z" />
<glyph unicode="r" horiz-adv-x="606" d="M115 0v860h153v-143q123 160 307 160v-158q-209 0 -299 -131v-588h-161z" />
<glyph unicode="s" horiz-adv-x="716" d="M55 96l82 115q106 -96 217 -96q147 0 148 123q0 45 -41 77.5t-100.5 56t-119 50.5t-100.5 77t-41 122q0 106 81 181t212 75q125 0 250 -82l-72 -121q-101 71 -182 71h-2q-70 0 -104.5 -30.5t-34.5 -79.5q0 -47 62.5 -84t137 -61.5t137 -85t62.5 -150.5q0 -111 -80 -190.5 t-205 -79.5q-168 0 -307 112z" />
<glyph unicode="t" horiz-adv-x="604" d="M29 721v20l137 133v150l158 117v-281h254v-139h-254v-483q0 -113 135 -113q29 0 71 6l17 -131q-82 -16 -141 -16q-240 0 -240 270v467h-137z" />
<glyph unicode="u" horiz-adv-x="980" d="M106 276v584h162v-541q0 -200 179 -200h2q133 0 256 131v610h161v-860h-153v121q-59 -57 -144.5 -97t-165.5 -40q-145 0 -221 79.5t-76 212.5z" />
<glyph unicode="v" horiz-adv-x="890" d="M8 860h180l261 -602l260 602h174l-428 -883h-27z" />
<glyph unicode="w" horiz-adv-x="1220" d="M16 860h181l168 -561l237 565h27l254 -565l157 561h172l-305 -883h-26l-263 584l-266 -584h-26z" />
<glyph unicode="x" horiz-adv-x="854" d="M39 0l313 426l-313 434h182l217 -315l215 315h174l-309 -430l309 -430h-182l-213 311l-219 -311h-174z" />
<glyph unicode="y" horiz-adv-x="890" d="M8 860h180l263 -616l258 616h174l-609 -1302h-161l258 524z" />
<glyph unicode="z" horiz-adv-x="829" d="M37 23l504 698h-465v139h702l10 -24l-503 -697h493v-139h-731z" />
<glyph unicode="{" horiz-adv-x="608" d="M51 465v129h47q72 0 99.5 30.5t27.5 102.5v432q0 356 346 357v-144q-100 0 -149 -47t-49 -158v-407q0 -98 -27 -145.5t-113 -86.5q86 -39 113 -85t27 -146v-406q0 -113 49 -159.5t149 -46.5v-142q-346 0 -346 355v434q0 70 -27.5 101.5t-99.5 31.5h-47z" />
<glyph unicode="|" horiz-adv-x="507" d="M184 -442v1943h140v-1943h-140z" />
<glyph unicode="}" horiz-adv-x="608" d="M37 -315q100 0 149.5 47t49.5 159v406q0 100 26.5 146t112.5 85q-86 39 -112.5 86.5t-26.5 145.5v407q0 111 -49.5 158t-149.5 47v144q346 0 346 -357v-432q0 -72 27.5 -102.5t99.5 -30.5h47v-129h-47q-72 0 -99.5 -32t-27.5 -101v-434q0 -354 -346 -355v142z" />
<glyph unicode="~" d="M145 743q86 111 195 111q57 0 117 -39q57 -39 102 -39q59 0 119 76l74 -96q-86 -111 -195 -111q-57 0 -119 39q-53 39 -100 39q-59 0 -119 -76z" />
<glyph unicode="&#xa1;" horiz-adv-x="450" d="M119 1411q0 45 30.5 76t75.5 31q43 0 74 -31t31 -76q0 -43 -31 -73.5t-74 -30.5q-45 0 -75.5 30.5t-30.5 73.5zM135 0l29 1128h123l28 -1128h-180z" />
<glyph unicode="&#xa2;" horiz-adv-x="876" d="M82 426q0 172 112.5 298t280.5 148l12 146l134 -10l-11 -138q119 -14 230 -82l-66 -122q-90 51 -176 65l-47 -608q109 2 233 72l56 -123q-145 -88 -291 -88h-8l-11 -142l-133 11l11 149q-150 41 -238 159t-88 265zM238 426q0 -96 49 -171t133 -110l45 586 q-102 -20 -164.5 -100t-62.5 -205z" />
<glyph unicode="&#xa3;" horiz-adv-x="899" d="M72 0v145h135v365h-135v12l135 140v143q0 174 102.5 284.5t284.5 110.5q138 0 285 -88l-78 -135q-117 76 -230 76q-203 0 -202 -269v-135h252v-139h-252v-365h501v-145h-798z" />
<glyph unicode="&#xa5;" horiz-adv-x="1030" d="M51 1180h185l286 -461l279 461h178l-311 -492h252v-139h-320v-137h320v-133h-320v-279h-162v279h-327v133h327v137h-327v139h258z" />
<glyph unicode="&#xa7;" horiz-adv-x="915" d="M133 90l80 117q47 -43 118.5 -69.5t131.5 -26.5q150 0 149 110q0 47 -49 80t-118.5 53.5t-139 46t-119 74.5t-49.5 121q0 139 142 199q-84 55 -84 149q0 102 90 179t223 77q145 0 268 -84l-71 -119q-102 72 -201 72q-70 0 -112 -31.5t-42 -79.5q0 -37 48 -66.5t116 -52 t136.5 -50t116.5 -78.5t48 -121q0 -133 -127 -197q74 -57 74 -149q0 -106 -85 -185t-224 -79q-182 0 -320 110zM289 627q0 -25 12 -44.5t43 -36t56.5 -26.5t82 -29.5t88.5 -31.5q43 10 71 39.5t28 68.5q0 51 -53.5 88t-202.5 80q-55 -6 -90 -36.5t-35 -71.5z" />
<glyph unicode="&#xa8;" d="M170 1114q0 43 30.5 74t71.5 31q43 0 74 -31t31 -74q0 -41 -31 -71.5t-74 -30.5q-41 0 -71.5 30.5t-30.5 71.5zM524 1114q0 43 31 74t74 31q41 0 71.5 -31t30.5 -74q0 -41 -30.5 -71.5t-71.5 -30.5q-43 0 -74 30.5t-31 71.5z" />
<glyph unicode="&#xa9;" horiz-adv-x="1724" d="M102 749.5q0 321.5 222.5 549t538 227.5t537.5 -227.5t222 -549t-222 -548t-537.5 -226.5t-538 226.5t-222.5 548zM240 750q0 -270 182 -462t440 -192t440.5 192t182.5 462q0 272 -182.5 463.5t-440.5 191.5t-440 -191.5t-182 -463.5zM494 758q0 166 114.5 276.5 t290.5 110.5q125 0 242 -68l-43 -108q-104 57 -201 57q-123 0 -193.5 -73.5t-70.5 -194.5q0 -119 72.5 -194t195.5 -75q102 0 203 60l41 -109q-113 -70 -246 -69q-178 0 -291.5 108.5t-113.5 278.5z" />
<glyph unicode="&#xaa;" horiz-adv-x="700" d="M63 1067q0 86 63.5 142.5t164.5 56.5q88 0 180 -41v30q0 145 -158 146q-78 0 -159 -29l-21 121q106 33 203 33q287 0 287 -277v-370h-148v63q-74 -74 -186 -74q-96 0 -161 53.5t-65 145.5zM209 1073q0 -96 123 -96q80 0 139 63v80q-76 45 -147 45q-115 0 -115 -92z" />
<glyph unicode="&#xab;" horiz-adv-x="866" d="M100 354l215 334h162l-225 -334l225 -336h-162zM397 354l215 334h162l-225 -334l225 -336h-162z" />
<glyph unicode="&#xad;" horiz-adv-x="694" d="M102 426v139h490v-139h-490z" />
<glyph unicode="&#xae;" horiz-adv-x="790" d="M47 1169q0 147 102.5 252t246 105t245.5 -104.5t102 -252.5q0 -145 -102 -249.5t-245.5 -104.5t-246 104.5t-102.5 249.5zM111 1169q0 -121 84 -209t200.5 -88t200.5 88.5t84 208.5q0 123 -83 211t-202 88q-117 0 -200.5 -88t-83.5 -211zM283 999v344q43 6 96 7 q72 0 108.5 -31t36.5 -80q0 -78 -65 -102l90 -138h-76l-76 123q-10 -2 -22 -2l-27 2v-123h-65zM348 1176q14 -2 33 -2q74 0 74 63q0 55 -70 55q-27 0 -37 -2v-114z" />
<glyph unicode="&#xaf;" d="M158 1026v137h587v-137h-587z" />
<glyph unicode="&#xb0;" d="M227 1192q0 94 62.5 155.5t161 61.5t161 -61.5t62.5 -155.5t-62.5 -153.5t-161 -59.5t-161 59.5t-62.5 153.5zM342 1194q0 -53 29.5 -87t79 -34t79 34t29.5 87t-29.5 87t-79 34t-79 -34t-29.5 -87z" />
<glyph unicode="&#xb4;" d="M225 1061l359 256l80 -164l-392 -182z" />
<glyph unicode="&#xb6;" horiz-adv-x="1212" d="M117 729q0 213 168 342t448 129q129 0 326 -24v-1176h-148v1036q-35 6 -133 11v-1047h-147v326q-217 -12 -365.5 95t-148.5 308zM293 737q0 -135 99.5 -204.5t238.5 -57.5v569q-164 -14 -251 -96t-87 -211z" />
<glyph unicode="&#xb7;" horiz-adv-x="614" d="M203 750q0 43 30.5 73.5t73.5 30.5q45 0 76 -30.5t31 -73.5q0 -45 -31 -76t-76 -31q-43 0 -73.5 31t-30.5 76z" />
<glyph unicode="&#xb8;" d="M270 -416l47 94q92 -55 175 -55q37 0 58 20.5t21 53.5q0 41 -46 70.5t-144 35.5l-8 17l55 209l94 -25l-28 -108q200 -45 200 -195q0 -80 -52 -133t-150 -53q-100 0 -222 69z" />
<glyph unicode="&#xba;" horiz-adv-x="739" d="M41 1196q0 139 90 234.5t237.5 95.5t238.5 -95.5t91 -234.5t-91 -233.5t-238.5 -94.5t-237.5 94.5t-90 233.5zM193 1196q0 -94 47 -149.5t129 -55.5t130 55.5t48 149.5t-48 150.5t-130 56.5t-129 -55.5t-47 -151.5z" />
<glyph unicode="&#xbb;" horiz-adv-x="866" d="M92 18l225 336l-225 334h162l215 -334l-215 -336h-162zM389 18l225 336l-225 334h162l215 -334l-215 -336h-162z" />
<glyph unicode="&#xbf;" horiz-adv-x="786" d="M47 326q0 84 39 154.5t93 120.5t109.5 98.5t94.5 106.5t39 122v157h149v-200q0 -70 -36.5 -132.5t-89 -109.5t-105.5 -93t-90 -101.5t-37 -114.5q0 -193 246 -193q115 0 237 47l45 -147q-160 -55 -297 -55q-190 0 -293.5 95t-103.5 245zM393 1411q0 45 31 76t76 31 q43 0 73.5 -31t30.5 -76q0 -43 -30.5 -73.5t-73.5 -30.5q-45 0 -76 30.5t-31 73.5z" />
<glyph unicode="&#xc0;" horiz-adv-x="1394" d="M10 0l674 1528h27l673 -1528h-176l-178 416h-672l-178 -416h-170zM369 1808l86 160l358 -256l-53 -86zM418 553h553l-277 645z" />
<glyph unicode="&#xc1;" horiz-adv-x="1394" d="M10 0l674 1528h27l673 -1528h-176l-178 416h-672l-178 -416h-170zM418 553h553l-277 645zM582 1716l358 256l80 -164l-391 -182z" />
<glyph unicode="&#xc2;" horiz-adv-x="1394" d="M10 0l674 1528h27l673 -1528h-176l-178 416h-672l-178 -416h-170zM397 1657l273 328h59l266 -328h-168l-137 174l-135 -174h-158zM418 553h553l-277 645z" />
<glyph unicode="&#xc3;" horiz-adv-x="1394" d="M10 0l674 1528h27l673 -1528h-176l-178 416h-672l-178 -416h-170zM399 1757q86 111 195 111q57 0 117 -39q57 -39 102 -39q59 0 119 76l74 -97q-86 -111 -195 -110q-57 0 -119 39q-53 39 -100 39q-59 0 -119 -76zM418 553h553l-277 645z" />
<glyph unicode="&#xc4;" horiz-adv-x="1394" d="M10 0l674 1528h27l673 -1528h-176l-178 416h-672l-178 -416h-170zM416 1769q0 43 30.5 74t71.5 31q43 0 74 -31t31 -74q0 -41 -31 -71.5t-74 -30.5q-41 0 -71.5 31t-30.5 71zM418 553h553l-277 645zM770 1769q0 43 30.5 74t73.5 31q41 0 72 -31t31 -74q0 -41 -31 -71.5 t-72 -30.5q-43 0 -73.5 31t-30.5 71z" />
<glyph unicode="&#xc5;" horiz-adv-x="1394" d="M10 0l639 1452q-78 14 -123 70.5t-45 134.5q0 90 59.5 150.5t158 60.5t157.5 -60.5t59 -150.5q0 -80 -46 -136.5t-126 -70.5l641 -1450h-176l-178 416h-672l-178 -416h-170zM418 553h553l-277 645zM594 1659q0 -51 29.5 -84t74.5 -33t75 33t30 84t-30 84t-75 33 t-74.5 -33t-29.5 -84z" />
<glyph unicode="&#xc6;" horiz-adv-x="2088" d="M0 0l1077 1501h879v-147h-715v-518h643v-148h-643v-541h715v-147h-879v483h-547l-342 -483h-188zM629 621h448v632z" />
<glyph unicode="&#xc7;" horiz-adv-x="1462" d="M113 750q0 332 228 554t568 222q264 0 496 -144l-68 -139q-223 129 -442 129q-279 0 -441.5 -175t-162.5 -447q0 -270 169 -445.5t449 -175.5q221 0 443 129l53 -139q-217 -135 -473 -144l-21 -79q201 -45 201 -195q0 -80 -52 -133t-151 -53q-100 0 -221 69l47 94 q92 -55 174 -55q37 0 58.5 20.5t21.5 53.5q0 41 -46 70.5t-144 35.5l-8 17l40 160q-317 25 -517.5 238.5t-200.5 531.5z" />
<glyph unicode="&#xc8;" horiz-adv-x="1175" d="M164 0v1501h878v-147h-714v-518h643v-148h-643v-541h714v-147h-878zM281 1808l86 160l358 -256l-53 -86z" />
<glyph unicode="&#xc9;" horiz-adv-x="1175" d="M164 0v1501h878v-147h-714v-518h643v-148h-643v-541h714v-147h-878zM494 1716l358 256l80 -164l-391 -182z" />
<glyph unicode="&#xca;" horiz-adv-x="1175" d="M164 0v1501h878v-147h-714v-518h643v-148h-643v-541h714v-147h-878zM309 1657l273 328h59l266 -328h-168l-137 174l-135 -174h-158z" />
<glyph unicode="&#xcb;" horiz-adv-x="1175" d="M164 0v1501h878v-147h-714v-518h643v-148h-643v-541h714v-147h-878zM328 1769q0 43 30.5 74t71.5 31q43 0 74 -31t31 -74q0 -41 -31 -71.5t-74 -30.5q-41 0 -71.5 31t-30.5 71zM682 1769q0 43 30.5 74t73.5 31q41 0 72 -31t31 -74q0 -41 -31 -71.5t-72 -30.5 q-43 0 -73.5 31t-30.5 71z" />
<glyph unicode="&#xcc;" horiz-adv-x="509" d="M-74 1808l86 160l359 -256l-54 -86zM174 0v1501h164v-1501h-164z" />
<glyph unicode="&#xcd;" horiz-adv-x="509" d="M139 1716l359 256l80 -164l-392 -182zM174 0v1501h164v-1501h-164z" />
<glyph unicode="&#xce;" horiz-adv-x="509" d="M-45 1657l272 328h60l266 -328h-168l-137 174l-135 -174h-158zM174 0v1501h164v-1501h-164z" />
<glyph unicode="&#xcf;" horiz-adv-x="509" d="M-27 1769q0 43 31 74t72 31q43 0 73.5 -31t30.5 -74q0 -41 -30.5 -71.5t-73.5 -30.5q-41 0 -72 31t-31 71zM174 0v1501h164v-1501h-164zM328 1769q0 43 30.5 74t73.5 31q41 0 72 -31t31 -74q0 -41 -31 -71.5t-72 -30.5q-43 0 -73.5 31t-30.5 71z" />
<glyph unicode="&#xd0;" horiz-adv-x="1566" d="M20 688v148h185v651q197 25 391 24q205 0 371 -62.5t270 -167.5t160.5 -237.5t56.5 -279.5q0 -154 -54 -292t-155.5 -246.5t-265.5 -173t-369 -64.5q-172 0 -405 24v676h-185zM369 145q84 -16 264 -16q317 0 480 176t163 459q0 270 -173 439t-491 169q-158 0 -243 -16 v-520h223v-148h-223v-543z" />
<glyph unicode="&#xd1;" horiz-adv-x="1486" d="M164 0v1522l33 8l962 -1149v1120h164v-1524l-20 -6l-975 1168v-1139h-164zM446 1726q86 111 195 111q59 0 116.5 -39t102.5 -39q59 0 119 76l74 -96q-86 -111 -195 -111q-57 0 -119 39q-53 39 -100 39q-59 0 -119 -76z" />
<glyph unicode="&#xd2;" horiz-adv-x="1722" d="M113 750q0 332 223 554t532.5 222t525.5 -221t216 -555q0 -332 -223.5 -553.5t-532.5 -221.5t-525 220.5t-216 554.5zM291 749.5q0 -268.5 161.5 -448.5t409.5 -180t409 180t161 448.5t-161 448.5t-409 180t-409.5 -180t-161.5 -448.5zM532 1808l86 160l359 -256l-53 -86 z" />
<glyph unicode="&#xd3;" horiz-adv-x="1722" d="M113 750q0 332 223 554t532.5 222t525.5 -221t216 -555q0 -332 -223.5 -553.5t-532.5 -221.5t-525 220.5t-216 554.5zM291 749.5q0 -268.5 161.5 -448.5t409.5 -180t409 180t161 448.5t-161 448.5t-409 180t-409.5 -180t-161.5 -448.5zM745 1716l359 256l80 -164 l-391 -182z" />
<glyph unicode="&#xd4;" horiz-adv-x="1722" d="M113 750q0 332 223 554t532.5 222t525.5 -221t216 -555q0 -332 -223.5 -553.5t-532.5 -221.5t-525 220.5t-216 554.5zM291 749.5q0 -268.5 161.5 -448.5t409.5 -180t409 180t161 448.5t-161 448.5t-409 180t-409.5 -180t-161.5 -448.5zM561 1657l273 328h59l266 -328 h-168l-137 174l-135 -174h-158z" />
<glyph unicode="&#xd5;" horiz-adv-x="1722" d="M113 750q0 332 223 554t532.5 222t525.5 -221t216 -555q0 -332 -223.5 -553.5t-532.5 -221.5t-525 220.5t-216 554.5zM291 749.5q0 -268.5 161.5 -448.5t409.5 -180t409 180t161 448.5t-161 448.5t-409 180t-409.5 -180t-161.5 -448.5zM563 1757q86 111 195 111 q59 0 116.5 -39t102.5 -39q59 0 119 76l73 -97q-86 -111 -194 -110q-57 0 -119 39q-53 39 -100 39q-59 0 -119 -76z" />
<glyph unicode="&#xd6;" horiz-adv-x="1722" d="M113 750q0 332 223 554t532.5 222t525.5 -221t216 -555q0 -332 -223.5 -553.5t-532.5 -221.5t-525 220.5t-216 554.5zM291 749.5q0 -268.5 161.5 -448.5t409.5 -180t409 180t161 448.5t-161 448.5t-409 180t-409.5 -180t-161.5 -448.5zM580 1769q0 43 30.5 74t71.5 31 q43 0 73.5 -31t30.5 -74q0 -41 -30.5 -71.5t-73.5 -30.5q-41 0 -71.5 31t-30.5 71zM934 1769q0 43 30.5 74t73.5 31q41 0 72 -31t31 -74q0 -41 -31 -71.5t-72 -30.5q-43 0 -73.5 31t-30.5 71z" />
<glyph unicode="&#xd7;" d="M123 360l229 230l-229 229l98 99l230 -230l229 230l98 -99l-229 -229l229 -230l-98 -98l-229 230l-230 -230z" />
<glyph unicode="&#xd8;" horiz-adv-x="1722" d="M113 750q0 332 223 554t532 222q270 0 473 -174l152 159l100 -100l-153 -160q170 -212 170 -501q0 -332 -223.5 -553.5t-532.5 -221.5q-268 0 -473 172l-152 -159l-100 102q10 10 25.5 26.5t49.5 51.5t54 57l23 23q-168 215 -168 502zM291 750q0 -217 108 -379l832 866 q-154 141 -369 141q-248 0 -409.5 -180t-161.5 -448zM492 260q156 -139 370 -139q248 0 409 180.5t161 448.5q0 217 -109 378q-831 -866 -831 -868z" />
<glyph unicode="&#xd9;" horiz-adv-x="1421" d="M145 539v962h164v-950q0 -217 106.5 -322.5t293.5 -105.5q184 0 293.5 106.5t109.5 321.5v950h164v-962q0 -258 -156.5 -411t-410.5 -153q-260 0 -412 147.5t-152 416.5zM385 1778l86 159l358 -256l-53 -86z" />
<glyph unicode="&#xda;" horiz-adv-x="1421" d="M145 539v962h164v-950q0 -217 106.5 -322.5t293.5 -105.5q184 0 293.5 106.5t109.5 321.5v950h164v-962q0 -258 -156.5 -411t-410.5 -153q-260 0 -412 147.5t-152 416.5zM598 1686l358 256l80 -164l-391 -183z" />
<glyph unicode="&#xdb;" horiz-adv-x="1421" d="M145 539v962h164v-950q0 -217 106.5 -322.5t293.5 -105.5q184 0 293.5 106.5t109.5 321.5v950h164v-962q0 -258 -156.5 -411t-410.5 -153q-260 0 -412 147.5t-152 416.5zM414 1626l272 328h59l267 -328h-168l-137 174l-136 -174h-157z" />
<glyph unicode="&#xdc;" horiz-adv-x="1421" d="M145 539v962h164v-950q0 -217 106.5 -322.5t293.5 -105.5q184 0 293.5 106.5t109.5 321.5v950h164v-962q0 -258 -156.5 -411t-410.5 -153q-260 0 -412 147.5t-152 416.5zM432 1739q0 43 31 73.5t72 30.5q43 0 73.5 -30.5t30.5 -73.5q0 -41 -30.5 -72t-73.5 -31 q-41 0 -72 31t-31 72zM786 1739q0 43 31 73.5t74 30.5q41 0 71.5 -30.5t30.5 -73.5q0 -41 -30.5 -72t-71.5 -31q-43 0 -74 31t-31 72z" />
<glyph unicode="&#xdd;" horiz-adv-x="1300" d="M41 1501h184l430 -696l424 696h181l-529 -835v-666h-164v668zM535 1686l358 256l80 -164l-391 -183z" />
<glyph unicode="&#xde;" horiz-adv-x="1128" d="M164 0v1501h164v-258q80 8 180 8q276 0 426.5 -138t150.5 -343q0 -229 -157.5 -372.5t-429.5 -143.5q-68 0 -170 8v-262h-164zM328 414q102 -12 180 -13q201 0 301 100.5t100 256.5q0 141 -100 241.5t-277 100.5q-133 0 -204 -17v-669z" />
<glyph unicode="&#xdf;" horiz-adv-x="1001" d="M133 0v1102q0 414 338 414q72 0 133 -19l-26 -139q-41 10 -80 10q-113 0 -159 -54t-46 -190v-264h661l11 -24l-281 -379q256 -47 256 -299q0 -176 -117.5 -263.5t-298.5 -87.5q-55 0 -123 11l21 139q49 -8 100 -8q125 0 192.5 51t67.5 150q0 84 -59 135t-184 51 q-47 0 -74 -4l-12 28l256 361h-416v-721h-160z" />
<glyph unicode="&#xe0;" horiz-adv-x="892" d="M68 260q0 117 88 192.5t221 75.5q123 0 260 -57v51q0 111 -54.5 162t-170.5 51q-121 0 -226 -43l-26 139q147 45 272 46q184 0 273.5 -89.5t89.5 -275.5v-512h-150v90q-111 -106 -266 -106q-133 0 -222 74.5t-89 201.5zM133 1153l86 160l359 -256l-54 -86zM221 260 q0 -72 52.5 -109.5t146.5 -37.5q125 0 217 106v117q-127 70 -234 70q-84 0 -133 -37t-49 -109z" />
<glyph unicode="&#xe1;" horiz-adv-x="892" d="M68 260q0 117 88 192.5t221 75.5q123 0 260 -57v51q0 111 -54.5 162t-170.5 51q-121 0 -226 -43l-26 139q147 45 272 46q184 0 273.5 -89.5t89.5 -275.5v-512h-150v90q-111 -106 -266 -106q-133 0 -222 74.5t-89 201.5zM221 260q0 -72 52.5 -109.5t146.5 -37.5 q125 0 217 106v117q-127 70 -234 70q-84 0 -133 -37t-49 -109zM346 1061l359 256l79 -164l-391 -182z" />
<glyph unicode="&#xe2;" horiz-adv-x="892" d="M68 260q0 117 88 192.5t221 75.5q123 0 260 -57v51q0 111 -54.5 162t-170.5 51q-121 0 -226 -43l-26 139q147 45 272 46q184 0 273.5 -89.5t89.5 -275.5v-512h-150v90q-111 -106 -266 -106q-133 0 -222 74.5t-89 201.5zM162 1001l272 328h60l266 -328h-168l-137 175 l-136 -175h-157zM221 260q0 -72 52.5 -109.5t146.5 -37.5q125 0 217 106v117q-127 70 -234 70q-84 0 -133 -37t-49 -109z" />
<glyph unicode="&#xe3;" horiz-adv-x="892" d="M68 260q0 117 88 192.5t221 75.5q123 0 260 -57v51q0 111 -54.5 162t-170.5 51q-121 0 -226 -43l-26 139q147 45 272 46q184 0 273.5 -89.5t89.5 -275.5v-512h-150v90q-111 -106 -266 -106q-133 0 -222 74.5t-89 201.5zM164 1102q86 111 194 110q59 0 116.5 -38.5 t103.5 -38.5q59 0 118 75l74 -96q-86 -111 -195 -110q-57 0 -118 38q-53 39 -101 39q-59 0 -118 -75zM221 260q0 -72 52.5 -109.5t146.5 -37.5q125 0 217 106v117q-127 70 -234 70q-84 0 -133 -37t-49 -109z" />
<glyph unicode="&#xe4;" horiz-adv-x="892" d="M68 260q0 117 88 192.5t221 75.5q123 0 260 -57v51q0 111 -54.5 162t-170.5 51q-121 0 -226 -43l-26 139q147 45 272 46q184 0 273.5 -89.5t89.5 -275.5v-512h-150v90q-111 -106 -266 -106q-133 0 -222 74.5t-89 201.5zM180 1114q0 43 31 74t72 31q43 0 73.5 -31 t30.5 -74q0 -41 -30.5 -71.5t-73.5 -30.5q-41 0 -72 30.5t-31 71.5zM221 260q0 -72 52.5 -109.5t146.5 -37.5q125 0 217 106v117q-127 70 -234 70q-84 0 -133 -37t-49 -109zM535 1114q0 43 30.5 74t73.5 31q41 0 71.5 -31t30.5 -74q0 -41 -30.5 -71.5t-71.5 -30.5 q-43 0 -73.5 30.5t-30.5 71.5z" />
<glyph unicode="&#xe5;" horiz-adv-x="892" d="M68 260q0 117 88 192.5t221 75.5q123 0 260 -57v51q0 111 -54.5 162t-170.5 51q-121 0 -226 -43l-26 139q147 45 272 46q184 0 273.5 -89.5t89.5 -275.5v-512h-150v90q-111 -106 -266 -106q-133 0 -222 74.5t-89 201.5zM221 260q0 -72 52.5 -109.5t146.5 -37.5 q125 0 217 106v117q-127 70 -234 70q-84 0 -133 -37t-49 -109zM244 1202q0 90 59 150.5t157.5 60.5t158 -60.5t59.5 -150.5t-59.5 -149.5t-158 -59.5t-157.5 59.5t-59 149.5zM356 1204q0 -51 30 -84t75 -33t74.5 33t29.5 84t-29.5 84t-74.5 33t-75 -33t-30 -84z" />
<glyph unicode="&#xe6;" horiz-adv-x="1499" d="M68 260q0 117 88 192.5t219 75.5t262 -59v53q0 111 -53.5 162t-171.5 51q-117 0 -226 -43l-26 139q147 45 274 46q233 0 305 -154q113 154 316 154q176 0 276.5 -117t100.5 -297q0 -37 -7 -82h-630q29 -258 321 -258q98 0 236 47l28 -137q-166 -49 -278 -49 q-258 0 -377 172q-121 -172 -346 -172q-131 0 -221 74.5t-90 201.5zM221 260q0 -72 52.5 -109.5t146.5 -37.5q74 0 138 49t91 149q-39 41 -107.5 68t-138.5 27q-84 0 -133 -37t-49 -109zM801 504h481q-8 106 -68.5 171.5t-171.5 65.5q-102 0 -164.5 -62.5t-76.5 -174.5z" />
<glyph unicode="&#xe7;" horiz-adv-x="876" d="M82 426q0 188 132 319.5t333 131.5q154 0 293 -89l-66 -122q-121 72 -242 71q-129 0 -211.5 -84t-82.5 -227q0 -135 91 -219t214 -84q121 0 241 72l56 -123q-139 -88 -293 -88h-19l-22 -88q201 -45 201 -195q0 -80 -52.5 -133t-150.5 -53q-100 0 -221 69l47 94 q92 -55 174 -55q37 0 58.5 20.5t21.5 53.5q0 41 -46 70.5t-145 35.5l-8 17l45 176q-156 33 -252 152.5t-96 277.5z" />
<glyph unicode="&#xe8;" horiz-adv-x="944" d="M82 426q0 186 112.5 318.5t305.5 132.5q178 0 277.5 -116t99.5 -298q0 -51 -7 -82h-630q33 -258 321 -258q96 0 238 47l28 -137q-168 -49 -280 -49q-223 0 -344 123.5t-121 318.5zM168 1153l86 160l358 -256l-53 -86zM246 504h481q-8 106 -68.5 171.5t-169.5 65.5 q-102 0 -165.5 -62t-77.5 -175z" />
<glyph unicode="&#xe9;" horiz-adv-x="944" d="M82 426q0 186 112.5 318.5t305.5 132.5q178 0 277.5 -116t99.5 -298q0 -51 -7 -82h-630q33 -258 321 -258q96 0 238 47l28 -137q-168 -49 -280 -49q-223 0 -344 123.5t-121 318.5zM246 504h481q-8 106 -68.5 171.5t-169.5 65.5q-102 0 -165.5 -62t-77.5 -175zM381 1061 l358 256l80 -164l-391 -182z" />
<glyph unicode="&#xea;" horiz-adv-x="944" d="M82 426q0 186 112.5 318.5t305.5 132.5q178 0 277.5 -116t99.5 -298q0 -51 -7 -82h-630q33 -258 321 -258q96 0 238 47l28 -137q-168 -49 -280 -49q-223 0 -344 123.5t-121 318.5zM197 1001l272 328h59l267 -328h-168l-138 175l-135 -175h-157zM246 504h481 q-8 106 -68.5 171.5t-169.5 65.5q-102 0 -165.5 -62t-77.5 -175z" />
<glyph unicode="&#xeb;" horiz-adv-x="944" d="M82 426q0 186 112.5 318.5t305.5 132.5q178 0 277.5 -116t99.5 -298q0 -51 -7 -82h-630q33 -258 321 -258q96 0 238 47l28 -137q-168 -49 -280 -49q-223 0 -344 123.5t-121 318.5zM215 1114q0 43 30.5 74t71.5 31q43 0 74 -31t31 -74q0 -41 -31 -71.5t-74 -30.5 q-41 0 -71.5 30.5t-30.5 71.5zM246 504h481q-8 106 -68.5 171.5t-169.5 65.5q-102 0 -165.5 -62t-77.5 -175zM569 1114q0 43 31 74t74 31q41 0 71.5 -31t30.5 -74q0 -41 -30.5 -71.5t-71.5 -30.5q-43 0 -74 30.5t-31 71.5z" />
<glyph unicode="&#xec;" horiz-adv-x="425" d="M-115 1153l86 160l359 -256l-54 -86zM133 0v860h162v-860h-162z" />
<glyph unicode="&#xed;" horiz-adv-x="425" d="M98 1061l359 256l80 -164l-392 -182zM133 0v860h162v-860h-162z" />
<glyph unicode="&#xee;" horiz-adv-x="425" d="M-86 1001l272 328h60l266 -328h-168l-137 175l-135 -175h-158zM133 0v860h162v-860h-162z" />
<glyph unicode="&#xef;" horiz-adv-x="425" d="M-68 1114q0 43 31 74t72 31q43 0 73.5 -31t30.5 -74q0 -41 -30.5 -71.5t-73.5 -30.5q-41 0 -72 30.5t-31 71.5zM133 0v860h162v-860h-162zM287 1114q0 43 30.5 74t73.5 31q41 0 72 -31t31 -74q0 -41 -31 -71.5t-72 -30.5q-43 0 -73.5 30.5t-30.5 71.5z" />
<glyph unicode="&#xf0;" horiz-adv-x="1036" d="M82 449q0 184 112.5 307t280.5 123q178 0 289 -123q-66 231 -289 428l-166 -148l-82 97l148 131q-88 63 -213 120l65 121q139 -63 254 -145l135 123l82 -99l-116 -104q373 -322 372 -807q0 -219 -121.5 -354t-316.5 -135q-209 0 -321.5 132t-112.5 333zM240 438 q0 -131 76.5 -226t199.5 -95q127 0 204 90t77 227q0 135 -79 223t-208 88q-121 0 -195.5 -83.5t-74.5 -223.5z" />
<glyph unicode="&#xf1;" horiz-adv-x="980" d="M115 0v860h153v-131q147 147 318 148q143 0 215.5 -79t72.5 -214v-584h-161v541q0 102 -41 151t-133 49q-135 0 -263 -139v-602h-161zM197 1102q86 111 194 110q59 0 116.5 -38.5t102.5 -38.5q59 0 119 75l74 -96q-86 -111 -195 -110q-57 0 -119 38q-53 39 -100 39 q-59 0 -119 -75z" />
<glyph unicode="&#xf2;" horiz-adv-x="1034" d="M82 430q0 188 122 317.5t314.5 129.5t313 -129.5t120.5 -317.5t-120.5 -317t-313 -129t-314.5 129t-122 317zM188 1153l86 160l359 -256l-53 -86zM242 430q0 -141 75.5 -228t200.5 -87q123 0 199 87t76 228t-76 228t-199 87q-125 0 -200.5 -87t-75.5 -228z" />
<glyph unicode="&#xf3;" horiz-adv-x="1034" d="M82 430q0 188 122 317.5t314.5 129.5t313 -129.5t120.5 -317.5t-120.5 -317t-313 -129t-314.5 129t-122 317zM242 430q0 -141 75.5 -228t200.5 -87q123 0 199 87t76 228t-76 228t-199 87q-125 0 -200.5 -87t-75.5 -228zM401 1061l359 256l80 -164l-391 -182z" />
<glyph unicode="&#xf4;" horiz-adv-x="1034" d="M82 430q0 188 122 317.5t314.5 129.5t313 -129.5t120.5 -317.5t-120.5 -317t-313 -129t-314.5 129t-122 317zM217 1001l272 328h60l266 -328h-168l-137 175l-135 -175h-158zM242 430q0 -141 75.5 -228t200.5 -87q123 0 199 87t76 228t-76 228t-199 87q-125 0 -200.5 -87 t-75.5 -228z" />
<glyph unicode="&#xf5;" horiz-adv-x="1034" d="M82 430q0 188 122 317.5t314.5 129.5t313 -129.5t120.5 -317.5t-120.5 -317t-313 -129t-314.5 129t-122 317zM219 1102q86 111 195 110q57 0 116 -38q57 -39 103 -39q59 0 119 75l73 -96q-86 -111 -194 -110q-57 0 -119 38q-53 39 -100 39q-59 0 -119 -75zM242 430 q0 -141 75.5 -228t200.5 -87q123 0 199 87t76 228t-76 228t-199 87q-125 0 -200.5 -87t-75.5 -228z" />
<glyph unicode="&#xf6;" horiz-adv-x="1034" d="M82 430q0 188 122 317.5t314.5 129.5t313 -129.5t120.5 -317.5t-120.5 -317t-313 -129t-314.5 129t-122 317zM236 1114q0 43 30.5 74t71.5 31q43 0 73.5 -31t30.5 -74q0 -41 -30.5 -71.5t-73.5 -30.5q-41 0 -71.5 30.5t-30.5 71.5zM242 430q0 -141 75.5 -228t200.5 -87 q123 0 199 87t76 228t-76 228t-199 87q-125 0 -200.5 -87t-75.5 -228zM590 1114q0 43 30.5 74t73.5 31q41 0 72 -31t31 -74q0 -41 -31 -71.5t-72 -30.5q-43 0 -73.5 30.5t-30.5 71.5z" />
<glyph unicode="&#xf7;" horiz-adv-x="942" d="M123 520v139h696v-139h-696zM369 309q0 43 29.5 74t72.5 31t72.5 -31t29.5 -74q0 -41 -29.5 -71.5t-72.5 -30.5t-72.5 30.5t-29.5 71.5zM369 868q0 43 29.5 74t72.5 31t72.5 -31t29.5 -74q0 -41 -29.5 -71.5t-72.5 -30.5t-72.5 30.5t-29.5 71.5z" />
<glyph unicode="&#xf8;" horiz-adv-x="1034" d="M57 63l105 99q-80 119 -80 268q0 190 122 318.5t314 128.5q172 0 285 -103l96 92l78 -80l-100 -94q76 -113 75 -262q0 -190 -120.5 -318t-313.5 -128q-166 0 -280 96l-101 -96zM240 430q-1 -94 30 -164l432 412q-70 68 -184 67q-129 0 -203.5 -83.5t-74.5 -231.5z M338 176q72 -61 180 -61q127 0 202 84t75 231q0 86 -29 156z" />
<glyph unicode="&#xf9;" horiz-adv-x="980" d="M106 276v584h162v-541q0 -201 181 -200q133 0 256 131v610h161v-860h-153v121q-59 -57 -144.5 -97t-165.5 -40q-145 0 -221 79.5t-76 212.5zM158 1153l86 160l358 -256l-53 -86z" />
<glyph unicode="&#xfa;" horiz-adv-x="980" d="M106 276v584h162v-541q0 -201 181 -200q133 0 256 131v610h161v-860h-153v121q-59 -57 -144.5 -97t-165.5 -40q-145 0 -221 79.5t-76 212.5zM371 1061l358 256l80 -164l-391 -182z" />
<glyph unicode="&#xfb;" horiz-adv-x="980" d="M106 276v584h162v-541q0 -201 181 -200q133 0 256 131v610h161v-860h-153v121q-59 -57 -144.5 -97t-165.5 -40q-145 0 -221 79.5t-76 212.5zM186 1001l273 328h59l266 -328h-168l-137 175l-135 -175h-158z" />
<glyph unicode="&#xfc;" horiz-adv-x="980" d="M106 276v584h162v-541q0 -201 181 -200q133 0 256 131v610h161v-860h-153v121q-59 -57 -144.5 -97t-165.5 -40q-145 0 -221 79.5t-76 212.5zM205 1114q0 43 30.5 74t71.5 31q43 0 74 -31t31 -74q0 -41 -31 -71.5t-74 -30.5q-41 0 -71.5 30.5t-30.5 71.5zM559 1114 q0 43 31 74t74 31q41 0 71.5 -31t30.5 -74q0 -41 -30.5 -71.5t-71.5 -30.5q-43 0 -74 30.5t-31 71.5z" />
<glyph unicode="&#xfd;" horiz-adv-x="890" d="M8 860h180l263 -616l258 616h174l-609 -1302h-161l258 524zM330 1061l358 256l80 -164l-391 -182z" />
<glyph unicode="&#xfe;" horiz-adv-x="1044" d="M115 -442v1943h153v-727q117 102 289 102.5t289 -123.5t117 -317q0 -190 -123 -321t-314 -131q-135 0 -250 63v-489h-161zM274 215q86 -98 248 -98q123 0 202 89t79 228q0 131 -76 219t-201 88q-150 0 -252 -102v-424z" />
<glyph unicode="&#xff;" horiz-adv-x="890" d="M8 860h180l263 -616l258 616h174l-609 -1302h-161l258 524zM164 1114q0 43 30.5 74t71.5 31q43 0 74 -31t31 -74q0 -41 -31 -71.5t-74 -30.5q-41 0 -71.5 30.5t-30.5 71.5zM518 1114q0 43 31 74t74 31q41 0 71.5 -31t30.5 -74q0 -41 -30.5 -71.5t-71.5 -30.5 q-43 0 -74 30.5t-31 71.5z" />
<glyph unicode="&#x152;" horiz-adv-x="2211" d="M113 735q0 156 54 293t155.5 246.5t265.5 173t368 63.5q125 0 258 -10h865v-147h-715v-518h643v-148h-643v-541h715v-147h-850q-160 -12 -258 -12q-205 0 -371 62.5t-270.5 168t-160.5 237.5t-56 279zM291 735q0 -270 174 -438t491 -168q158 0 244 16v1211 q-84 16 -264 16q-317 0 -481 -176t-164 -461z" />
<glyph unicode="&#x153;" horiz-adv-x="1648" d="M82 430q0 188 122 317.5t314 129.5q231 0 350 -189q113 188 340 189q176 0 276.5 -117t100.5 -297q0 -37 -6 -82h-631q29 -258 320 -258q96 0 237 47l29 -137q-166 -49 -279 -49q-270 0 -389 186q-119 -186 -348 -186q-193 0 -314.5 129t-121.5 317zM242 430 q0 -141 75.5 -228t200.5 -87q123 0 199 87t76 228t-76 228t-199 87q-125 0 -200.5 -87t-75.5 -228zM954 504h482q-8 106 -68.5 171.5t-171.5 65.5q-102 0 -164.5 -62.5t-77.5 -174.5z" />
<glyph unicode="&#x178;" horiz-adv-x="1300" d="M41 1501h184l430 -696l424 696h181l-529 -835v-666h-164v668zM369 1739q0 43 30.5 73.5t71.5 30.5q43 0 73.5 -30.5t30.5 -73.5q0 -41 -30.5 -72t-73.5 -31q-41 0 -71.5 31t-30.5 72zM723 1739q0 43 30.5 73.5t73.5 30.5q41 0 72 -30.5t31 -73.5q0 -41 -31 -72t-72 -31 q-43 0 -73.5 31t-30.5 72z" />
<glyph unicode="&#x2c6;" d="M158 1001l272 328h59l267 -328h-168l-137 175l-136 -175h-157z" />
<glyph unicode="&#x2dc;" d="M145 1102q86 111 195 110q57 0 117 -38q57 -39 102 -39q59 0 119 75l74 -96q-86 -111 -195 -110q-57 0 -119 38q-53 39 -100 39q-59 0 -119 -75z" />
<glyph unicode="&#x2000;" horiz-adv-x="992" />
<glyph unicode="&#x2001;" horiz-adv-x="1985" />
<glyph unicode="&#x2002;" horiz-adv-x="992" />
<glyph unicode="&#x2003;" horiz-adv-x="1985" />
<glyph unicode="&#x2004;" horiz-adv-x="661" />
<glyph unicode="&#x2005;" horiz-adv-x="496" />
<glyph unicode="&#x2006;" horiz-adv-x="330" />
<glyph unicode="&#x2007;" horiz-adv-x="330" />
<glyph unicode="&#x2008;" horiz-adv-x="248" />
<glyph unicode="&#x2009;" horiz-adv-x="397" />
<glyph unicode="&#x200a;" horiz-adv-x="110" />
<glyph unicode="&#x2010;" horiz-adv-x="694" d="M102 426v139h490v-139h-490z" />
<glyph unicode="&#x2011;" horiz-adv-x="694" d="M102 426v139h490v-139h-490z" />
<glyph unicode="&#x2012;" horiz-adv-x="694" d="M102 426v139h490v-139h-490z" />
<glyph unicode="&#x2013;" horiz-adv-x="1024" d="M102 426v139h820v-139h-820z" />
<glyph unicode="&#x2014;" horiz-adv-x="1536" d="M102 426v139h1332v-139h-1332z" />
<glyph unicode="&#x2018;" horiz-adv-x="352" d="M61 1227q0 78 55.5 165t157.5 148l23 -33q-98 -86 -131 -202q49 -2 77.5 -32t28.5 -73q0 -41 -29.5 -70.5t-70.5 -29.5q-51 0 -81 35.5t-30 91.5z" />
<glyph unicode="&#x2019;" horiz-adv-x="352" d="M55 1118q98 86 131 203q-49 2 -77.5 31.5t-28.5 72.5q0 41 29.5 71t70.5 30q51 0 81 -36t30 -91q0 -78 -55.5 -165t-157.5 -149z" />
<glyph unicode="&#x201a;" horiz-adv-x="352" d="M55 -213q98 86 131 203q-49 2 -77.5 31.5t-28.5 72.5q0 41 29.5 71t70.5 30q51 0 81 -36t30 -89q0 -78 -55.5 -166t-157.5 -150z" />
<glyph unicode="&#x201c;" horiz-adv-x="653" d="M61 1227q0 78 55.5 165t157.5 148l23 -33q-98 -86 -131 -202q49 -2 77.5 -32t28.5 -73q0 -41 -29.5 -70.5t-70.5 -29.5q-51 0 -81 35.5t-30 91.5zM362 1227q0 78 55.5 165t157.5 148l23 -33q-98 -86 -131 -202q49 -2 77.5 -32t28.5 -73q0 -41 -29.5 -70.5t-70.5 -29.5 q-51 0 -81 35.5t-30 91.5z" />
<glyph unicode="&#x201d;" horiz-adv-x="653" d="M55 1118q98 86 131 203q-49 2 -77.5 31.5t-28.5 72.5q0 41 29.5 71t70.5 30q51 0 81 -36t30 -91q0 -78 -55.5 -165t-157.5 -149zM356 1118q98 86 131 203q-49 2 -77.5 31.5t-28.5 72.5q0 41 29.5 71t70.5 30q51 0 81 -36t30 -91q0 -78 -55.5 -165t-157.5 -149z" />
<glyph unicode="&#x201e;" horiz-adv-x="653" d="M55 -213q98 86 131 203q-49 2 -77.5 31.5t-28.5 72.5q0 41 29.5 71t70.5 30q51 0 81 -36t30 -91q0 -78 -55.5 -165t-157.5 -149zM356 -213q98 86 131 203q-49 2 -77.5 31.5t-28.5 72.5q0 41 29.5 71t70.5 30q51 0 79 -36t28 -91q0 -80 -53.5 -166t-155.5 -148z" />
<glyph unicode="&#x2022;" horiz-adv-x="778" d="M111 749.5q0 118.5 81.5 201.5t196.5 83t197 -83t82 -201.5t-82 -201.5t-197 -83t-196.5 83t-81.5 201.5z" />
<glyph unicode="&#x2026;" horiz-adv-x="1433" d="M141 90q0 43 31 74t74 31q45 0 75.5 -31t30.5 -74q0 -45 -30.5 -75.5t-75.5 -30.5q-43 0 -74 30.5t-31 75.5zM612 90q0 43 31 74t74 31q45 0 75.5 -31t30.5 -74q0 -45 -30.5 -75.5t-75.5 -30.5q-43 0 -74 30.5t-31 75.5zM1083 90q0 43 31 74t74 31q45 0 75.5 -31 t30.5 -74q0 -45 -30.5 -75.5t-75.5 -30.5q-43 0 -74 30.5t-31 75.5z" />
<glyph unicode="&#x202f;" horiz-adv-x="397" />
<glyph unicode="&#x2039;" horiz-adv-x="569" d="M100 354l215 334h162l-225 -334l225 -336h-162z" />
<glyph unicode="&#x203a;" horiz-adv-x="569" d="M92 18l225 336l-225 334h162l215 -334l-215 -336h-162z" />
<glyph unicode="&#x205f;" horiz-adv-x="496" />
<glyph unicode="&#x20ac;" horiz-adv-x="1333" d="M57 371v135h133q-4 49 -4 80t4 80h-133v139h166q68 178 227.5 286.5t368.5 108.5t395 -115l-67 -131q-172 100 -342 101q-143 0 -249.5 -66.5t-158.5 -183.5h566v-139h-605q-4 -49 -4 -80q0 -43 6 -80h603v-135h-562q53 -117 164 -183.5t252 -66.5q170 0 342 100l55 -131 q-186 -115 -395 -115q-213 0 -373.5 107.5t-224.5 288.5h-164z" />
<glyph unicode="&#x2122;" horiz-adv-x="1001" d="M47 1417v84h363v-84h-136v-360h-92v360h-135zM496 1057l20 448h12l199 -268l195 268h12l20 -448h-88l-6 239l-129 -180h-10l-131 180l-4 -239h-90z" />
<glyph unicode="&#x25fc;" horiz-adv-x="860" d="M0 0v860h860v-860h-860z" />
<glyph unicode="&#xfb01;" horiz-adv-x="1024" d="M53 721v20l133 133v228q0 414 338 414q72 -1 133 -19l-26 -139q-41 10 -80 10q-113 0 -159 -54t-46 -190v-264h254v-139h-254v-721h-160v721h-133zM717 1157q0 43 29.5 74t72.5 31t73 -31t30 -74q0 -41 -30 -71.5t-73 -30.5t-72.5 30.5t-29.5 71.5zM737 0v860h162v-860 h-162z" />
<glyph unicode="&#xfb02;" horiz-adv-x="1032" d="M53 721v20l133 133v228q0 414 338 414q72 -1 133 -19l-26 -139q-41 10 -80 10q-113 0 -159 -54t-46 -190v-264h254v-139h-254v-721h-160v721h-133zM737 0v1501h162v-1501h-162z" />
<glyph unicode="&#xfb03;" horiz-adv-x="1628" d="M53 721v20l133 133v228q0 414 338 414q72 -1 133 -19l-26 -139q-41 10 -80 10q-113 0 -159 -54t-46 -190v-264h254v-139h-254v-721h-160v721h-133zM657 721v20l134 133v228q0 414 337 414q73 -1 134 -19l-27 -139q-41 10 -80 10q-113 0 -159 -54t-46 -190v-264h254v-139 h-254v-721h-159v721h-134zM1321 1157q0 43 29.5 74t72.5 31t73 -31t30 -74q0 -41 -30 -71.5t-73 -30.5t-72.5 30.5t-29.5 71.5zM1341 0v860h162v-860h-162z" />
<glyph unicode="&#xfb04;" horiz-adv-x="1636" d="M53 721v20l133 133v228q0 414 338 414q72 -1 133 -19l-26 -139q-41 10 -80 10q-113 0 -159 -54t-46 -190v-264h254v-139h-254v-721h-160v721h-133zM657 721v20l134 133v228q0 414 337 414q73 -1 134 -19l-27 -139q-41 10 -80 10q-113 0 -159 -54t-46 -190v-264h254v-139 h-254v-721h-159v721h-134zM1341 0v1501h162v-1501h-162z" />
</font>
</defs>
</svg>
