<?xml version="1.0" encoding="utf-8"?>
<!-- Generator: Adobe Illustrator 18.1.1, SVG Export Plug-In . SVG Version: 6.00 Build 0)  -->
<svg version="1.1" id="Layer_1" xmlns="http://www.w3.org/2000/svg" xmlns:xlink="http://www.w3.org/1999/xlink" x="0px" y="0px"
	 width="30.7px" height="24.9px" viewBox="0 0 30.7 24.9" enable-background="new 0 0 30.7 24.9" xml:space="preserve">
<g>
	<path fill="#67AEBF" d="M0,22.4c5.6-4.2,7.8-7.8,7.8-12.5c-0.7,0.5-1.7,0.7-2.8,0.7c-2.9,0-4.8-2.1-4.8-5.1C0.3,2.3,2.8,0,6.5,0
		c4.2,0,6.5,3,6.5,8.6c0,6.3-2.6,10.1-10.9,16.3L0,22.4z M17.7,22.4c5.6-4.2,7.8-7.8,7.8-12.5c-0.7,0.5-1.7,0.7-2.8,0.7
		c-2.9,0-4.8-2.1-4.8-5.1c0-3.3,2.5-5.6,6.3-5.6c4.2,0,6.5,3,6.5,8.6c0,6.3-2.6,10.1-10.9,16.3L17.7,22.4z"/>
</g>
</svg>
