<?xml version="1.0" encoding="utf-8"?>
<!-- Generator: Adobe Illustrator 18.1.1, SVG Export Plug-In . SVG Version: 6.00 Build 0)  -->
<svg version="1.1" id="Layer_1" xmlns="http://www.w3.org/2000/svg" xmlns:xlink="http://www.w3.org/1999/xlink" x="0px" y="0px"
	 width="30.7px" height="24.9px" viewBox="0 0 30.7 24.9" enable-background="new 0 0 30.7 24.9" xml:space="preserve">
<g>
	<path fill="#67AEBF" d="M13.1,2.5C7.5,6.7,5.2,10.3,5.2,15C6,14.5,7,14.3,8,14.3c2.9,0,4.8,2.1,4.8,5.1c0,3.3-2.5,5.6-6.3,5.6
		c-4.2,0-6.5-3-6.5-8.6C0,10,2.6,6.2,10.9,0L13.1,2.5z M30.7,2.5c-5.6,4.2-7.8,7.8-7.8,12.5c0.7-0.5,1.7-0.7,2.8-0.7
		c2.9,0,4.8,2.1,4.8,5.1c0,3.3-2.5,5.6-6.3,5.6c-4.2,0-6.5-3-6.5-8.6C17.7,10,20.2,6.2,28.6,0L30.7,2.5z"/>
</g>
</svg>
