<?xml version="1.0" encoding="utf-8"?>
<!-- Generator: Adobe Illustrator 18.1.1, SVG Export Plug-In . SVG Version: 6.00 Build 0)  -->
<svg version="1.1" id="Layer_1" xmlns="http://www.w3.org/2000/svg" xmlns:xlink="http://www.w3.org/1999/xlink" x="0px" y="0px"
	 width="356px" height="139px" viewBox="-781 891 356 139" enable-background="new -781 891 356 139" xml:space="preserve">
<g>
	<g>
		<path fill="#FFFFFF" d="M-710.3,945.4h-5.1l-5.6-9.2c-0.3,0-0.8,0-1.4,0c-0.6,0-1.4,0-2.6-0.1v9.3h-4.4V920
			c2.3-0.3,4.6-0.4,6.8-0.4c3.5,0,6.1,0.7,7.9,2.2s2.6,3.4,2.6,5.8c0,1.7-0.4,3.1-1.3,4.4c-0.9,1.3-2.1,2.3-3.7,3L-710.3,945.4z
			 M-716.6,927.9c0-1.3-0.5-2.4-1.4-3.2s-2.2-1.2-3.9-1.2c-1.3,0-2.2,0.1-2.9,0.2v8.8c0.7,0.1,1.6,0.1,2.5,0.1
			c1.9,0,3.3-0.4,4.3-1.2C-717,930.6-716.6,929.4-716.6,927.9z"/>
		<path fill="#FFFFFF" d="M-675.4,932.6c0,3.8-1.3,6.9-3.8,9.5c-2.5,2.5-5.6,3.8-9.3,3.8s-6.8-1.3-9.2-3.8c-2.4-2.5-3.6-5.7-3.6-9.5
			c0-3.8,1.2-7,3.7-9.5s5.6-3.8,9.3-3.8s6.8,1.3,9.2,3.8C-676.7,925.6-675.4,928.8-675.4,932.6z M-680.1,932.6
			c0-2.7-0.8-4.9-2.3-6.7c-1.5-1.8-3.5-2.6-5.9-2.6c-2.4,0-4.4,0.9-6,2.6c-1.6,1.8-2.3,4-2.3,6.7c0,2.7,0.8,4.9,2.3,6.7
			s3.5,2.7,6,2.7c2.4,0,4.4-0.9,5.9-2.7S-680.1,935.3-680.1,932.6z"/>
		<path fill="#FFFFFF" d="M-649.5,938.2c0,2.1-0.8,4-2.3,5.4c-1.5,1.5-3.6,2.2-6.2,2.2c-2.8,0-5.5-0.8-8-2.5l1.5-3.9
			c2.2,1.6,4.4,2.4,6.7,2.4c1.3,0,2.3-0.3,2.9-1c0.7-0.6,1-1.4,1-2.4s-0.3-1.8-1-2.4c-0.7-0.6-1.9-1.4-3.9-2.2
			c-2.2-0.9-3.7-2-4.7-3.1c-0.9-1.2-1.4-2.6-1.4-4.1c0-2,0.8-3.6,2.3-5.1s3.6-2.1,6.1-2.1s4.6,0.6,6.4,1.9l-1.4,3.9
			c-1.8-1.2-3.5-1.8-5.1-1.8c-1.3,0-2.3,0.3-2.9,0.9c-0.7,0.6-1,1.4-1,2.3c0,0.8,0.3,1.6,1,2.2c0.7,0.6,1.8,1.3,3.4,2
			c2.5,1.1,4.2,2.2,5.1,3.3C-650.1,935.2-649.5,936.4-649.5,938.2z"/>
		<path fill="#FFFFFF" d="M-622.6,945.4h-15.6v-25.7h15.6v4h-11.3v6.7h10.2v3.8h-10.2v7.1h11.3V945.4z"/>
		<path fill="#FFFFFF" d="M-593.1,938.3c0,2-0.9,3.8-2.8,5.2c-1.8,1.4-4.4,2.2-7.7,2.2c-2.1,0-4.4-0.2-6.9-0.5V920
			c2.2-0.3,4.4-0.5,6.6-0.5c3.2,0,5.7,0.7,7.4,2c1.8,1.3,2.6,2.9,2.6,4.7c0,2.8-1.5,4.7-4.5,5.8
			C-594.9,933.1-593.1,935.1-593.1,938.3z M-598.3,927c0-1.1-0.4-2-1.2-2.7s-2-1-3.6-1c-1,0-2,0.1-3,0.2v7.1
			c0.6,0.1,1.5,0.1,2.6,0.1c1.8,0,3.1-0.3,4-1C-598.8,929-598.3,928.1-598.3,927z M-597.8,937.8c0-1.1-0.5-2.1-1.5-2.8
			s-2.4-1.1-4.2-1.1c-1.2,0-2.1,0-2.7,0.1v7.7c1,0.1,2,0.2,3.1,0.2c1.7,0,3-0.4,3.9-1.1C-598.3,940-597.8,939-597.8,937.8z"/>
		<path fill="#FFFFFF" d="M-566.3,945.4h-15.6v-25.7h15.6v4h-11.3v6.7h10.2v3.8h-10.2v7.1h11.3V945.4z"/>
		<path fill="#FFFFFF" d="M-535.1,945.4h-5.1l-5.6-9.2c-0.3,0-0.8,0-1.4,0c-0.6,0-1.4,0-2.6-0.1v9.3h-4.4V920
			c2.3-0.3,4.6-0.4,6.8-0.4c3.5,0,6.1,0.7,7.9,2.2s2.6,3.4,2.6,5.8c0,1.7-0.4,3.1-1.3,4.4s-2.1,2.3-3.7,3L-535.1,945.4z
			 M-541.5,927.9c0-1.3-0.5-2.4-1.4-3.2c-0.9-0.8-2.2-1.2-3.9-1.2c-1.3,0-2.2,0.1-2.9,0.2v8.8c0.7,0.1,1.6,0.1,2.5,0.1
			c1.9,0,3.3-0.4,4.3-1.2C-541.9,930.6-541.5,929.4-541.5,927.9z"/>
		<path fill="#FFFFFF" d="M-506,945.4h-5.1l-5.6-9.2c-0.3,0-0.8,0-1.4,0c-0.6,0-1.4,0-2.6-0.1v9.3h-4.3V920c2.3-0.3,4.6-0.4,6.8-0.4
			c3.5,0,6.1,0.7,7.9,2.2c1.8,1.5,2.6,3.4,2.6,5.8c0,1.7-0.4,3.1-1.3,4.4s-2.1,2.3-3.7,3L-506,945.4z M-512.3,927.9
			c0-1.3-0.5-2.4-1.4-3.2c-0.9-0.8-2.2-1.2-3.9-1.2c-1.3,0-2.2,0.1-2.9,0.2v8.8c0.7,0.1,1.6,0.1,2.5,0.1c1.9,0,3.3-0.4,4.3-1.2
			C-512.7,930.6-512.3,929.4-512.3,927.9z"/>
		<path fill="#FFFFFF" d="M-476.7,919.7l-9,14.9v10.8h-4.4v-10.8l-9-14.8h5l6.3,10.8l6.2-10.8L-476.7,919.7L-476.7,919.7z"/>
	</g>
	<g>
		<path fill="#FFFFFF" d="M-655.3,1000.1c-1.7,1.1-3.5,1.6-5.5,1.6c-2.7,0-4.8-0.8-6.5-2.5c-1.7-1.6-2.6-3.7-2.6-6.2
			s0.9-4.6,2.6-6.2c1.7-1.7,3.9-2.5,6.5-2.5c1.9,0,3.8,0.5,5.4,1.5l-1,2.4c-1.5-0.9-3-1.3-4.5-1.3c-1.8,0-3.3,0.6-4.3,1.7
			c-1,1.1-1.6,2.6-1.6,4.4s0.5,3.2,1.6,4.3c1.1,1.1,2.6,1.7,4.4,1.7c1.6,0,3.1-0.4,4.6-1.3L-655.3,1000.1z"/>
		<path fill="#FFFFFF" d="M-632.4,993c0,2.5-0.8,4.6-2.5,6.2c-1.6,1.7-3.7,2.5-6.1,2.5s-4.5-0.8-6-2.5c-1.6-1.6-2.4-3.7-2.4-6.2
			s0.8-4.6,2.5-6.2c1.6-1.7,3.7-2.5,6.1-2.5c2.4,0,4.5,0.8,6,2.5S-632.4,990.5-632.4,993z M-635.5,993c0-1.8-0.5-3.2-1.5-4.4
			c-1-1.2-2.3-1.7-3.9-1.7c-1.6,0-2.9,0.6-3.9,1.7c-1,1.2-1.5,2.6-1.5,4.4s0.5,3.2,1.5,4.4c1,1.2,2.3,1.7,3.9,1.7
			c1.6,0,2.9-0.6,3.9-1.7C-636,996.2-635.5,994.7-635.5,993z"/>
		<path fill="#FFFFFF" d="M-613.3,987.2h-5.3v14.2h-2.9v-14.2h-5.4v-2.6h13.6V987.2L-613.3,987.2z"/>
		<path fill="#FFFFFF" d="M-594,987.2h-5.3v14.2h-2.9v-14.2h-5.4v-2.6h13.6V987.2z"/>
		<path fill="#FFFFFF" d="M-574.5,1001.4h-3l-1.6-3.9h-6.7l-1.6,3.9h-3l7.8-17.1h0.4L-574.5,1001.4z M-580.1,995.3l-2.4-5.6
			l-2.4,5.6H-580.1z"/>
		<path fill="#FFFFFF" d="M-560.8,992.5h6.7v7.4c-1.9,1.2-4,1.8-6.3,1.8c-1.6,0-3.1-0.4-4.5-1.1c-1.4-0.7-2.4-1.7-3.3-3.1
			c-0.8-1.3-1.2-2.9-1.2-4.5c0-2.5,0.9-4.6,2.6-6.3c1.8-1.6,3.9-2.4,6.3-2.4c2.1,0,4.1,0.6,6,1.7l-1.3,2.3c-1.5-0.9-3-1.4-4.5-1.4
			c-1.9,0-3.3,0.6-4.4,1.7c-1.1,1.2-1.6,2.6-1.6,4.3c0,1.8,0.6,3.2,1.7,4.4c1.2,1.2,2.6,1.7,4.3,1.7c1.3,0,2.4-0.3,3.4-0.8V995h-3.9
			V992.5z"/>
		<path fill="#FFFFFF" d="M-536.1,1001.4h-10.3v-16.9h10.3v2.6h-7.4v4.4h6.7v2.5h-6.7v4.7h7.4V1001.4z"/>
	</g>
	<rect x="-691.6" y="964.3" fill="#FFFFFF" width="178" height="1"/>
	<circle fill="#FFFFFF" cx="-692.9" cy="964.8" r="1.5"/>
	<circle fill="#FFFFFF" cx="-513.1" cy="964.8" r="1.5"/>
	<path fill="#FFFFFF" d="M-425,1030h-356V891h356V1030z M-779,1028h352V893h-352V1028z"/>
</g>
</svg>
